<?xml version="1.0"?>
<svg xmlns="http://www.w3.org/2000/svg" xmlns:xlink="http://www.w3.org/1999/xlink" xmlns:svgjs="http://svgjs.com/svgjs" version="1.1" width="70" height="70" x="0" y="0" viewBox="0 0 512 512" style="enable-background:new 0 0 512 512" xml:space="preserve" class=""><g><path xmlns="http://www.w3.org/2000/svg" d="m484.205 20.274-460 144.181a6 6 0 0 0 -2.448 9.968l90.98 90.979 19.537 109.472a6 6 0 0 0 4.852 4.852l109.474 19.537 90.979 90.98a6 6 0 0 0 9.968-2.449l144.18-460a6 6 0 0 0 -7.52-7.52zm-446.957 152.668 408.052-127.897-326.165 209.785zm87.674 92.434 317.3-204.087-300.155 300.158zm25.63 104.556 300.159-300.157-204.086 317.3zm188.505 104.82-81.887-81.887 209.785-326.165z" fill="#08a120" data-original="#000000" style=""/><path xmlns="http://www.w3.org/2000/svg" d="m214.138 138.678a6 6 0 0 0 -7.8-3.352l-1.808.72a6 6 0 1 0 4.443 11.148l1.808-.721a6 6 0 0 0 3.357-7.795z" fill="#08a120" data-original="#000000" style=""/><path xmlns="http://www.w3.org/2000/svg" d="m186.419 143.266-80.155 31.945a6 6 0 1 0 4.442 11.147l80.156-31.944a6 6 0 0 0 -4.443-11.148z" fill="#08a120" data-original="#000000" style=""/></g></svg>
