<?xml version="1.0"?>
<svg xmlns="http://www.w3.org/2000/svg" xmlns:xlink="http://www.w3.org/1999/xlink" xmlns:svgjs="http://svgjs.com/svgjs" version="1.1" width="70" height="70" x="0" y="0" viewBox="0 0 512 512" style="enable-background:new 0 0 512 512" xml:space="preserve" class=""><g><g xmlns="http://www.w3.org/2000/svg"><path d="m457.658 431.755-10.658-26.645v-61.11c0-13.543-4.31-26.091-11.611-36.375 2.358-5.536 3.611-11.531 3.611-17.625v-100c0-24.009-18.9-43.684-42.602-44.935 1.68-4.713 2.602-9.783 2.602-15.065v-85c0-24.813-20.187-45-45-45h-196c-24.813 0-45 20.187-45 45v85c0 5.283.923 10.352 2.602 15.065-23.702 1.251-42.602 20.926-42.602 44.935v100c0 6.094 1.253 12.089 3.611 17.625-7.301 10.284-11.611 22.832-11.611 36.375v61.111l-10.658 26.645c-5.015 12.538-.995 26.948 9.774 35.081 56.205 43.179 54.674 42.05 54.774 42.061 2.527 1.938 5.679 3.103 9.11 3.103h256c5.722 0 8.898-3.081 9.138-3.105l54.746-42.058c10.769-8.134 14.789-22.544 9.774-35.083zm-106.658-38.755v-49c0-18.196 14.804-33 33-33s33 14.804 33 33v49zm-160 0v-49c0-20.02-9.397-37.874-24-49.422v-112.538l42 49.635v56.325c0 8.284 6.716 15 15 15h64c8.284 0 15-6.716 15-15v-56.325l42-49.635v112.538c-14.603 11.548-24 29.402-24 49.422v49zm-96 0v-49c0-18.196 14.804-33 33-33s33 14.804 33 33v49zm112-363h98v115h-98zm75.887 179h-53.775l-28.77-34h111.315zm-9.887 30v34h-34v-34zm136-49v96.186c-10.395-4.512-22.067-6.248-34-4.532v-106.654h19c8.271 0 15 6.729 15 15zm-40-145v85c0 8.271-6.729 15-15 15h-19v-115h19c8.271 0 15 6.729 15 15zm-226 0c0-8.271 6.729-15 15-15h19v115h-19c-8.271 0-15-6.729-15-15zm-25 130h19v106.653c-11.932-1.715-23.604.02-34 4.532v-96.185c0-8.271 6.729-15 15-15zm-35.803 267.897 7.958-19.897h22.845v43.561c-42.029-32.288-27.731-21.4-30.803-23.664zm60.803-19.897h226v59h-226zm286.665 20.003-30.665 23.558v-43.561h22.845c8.531 21.328 8.029 19.838 7.82 20.003z" fill="#08a120" data-original="#000000" style="" class=""/></g></g></svg>
