<?xml version="1.0"?>
<svg xmlns="http://www.w3.org/2000/svg" xmlns:xlink="http://www.w3.org/1999/xlink" xmlns:svgjs="http://svgjs.com/svgjs" version="1.1" width="40" height="40" x="0" y="0" viewBox="0 0 480 480" style="enable-background:new 0 0 512 512" xml:space="preserve" class=""><g><path xmlns="http://www.w3.org/2000/svg" d="m480 182v134c0 4.418-3.582 8-8 8s-8-3.582-8-8v-127.908l-223.479-61.649-224.521 92.905v96.652c0 4.418-3.582 8-8 8s-8-3.582-8-8v-102c0-3.237 1.95-6.154 4.941-7.392l232-96c1.645-.681 3.469-.793 5.187-.32l232 64c3.469.957 5.872 4.113 5.872 7.712zm-158 34h-198.852l117.394-51.502 99.201 29.177c4.237 1.246 8.686-1.179 9.932-5.417 1.247-4.239-1.179-8.686-5.417-9.932l-102-30c-1.808-.531-3.746-.408-5.471.349l-155 68c-7.902 3.465-5.407 15.325 3.213 15.325h237c4.418 0 8-3.582 8-8s-3.582-8-8-8zm117 100c0 29.776-24.224 54-54 54s-54-24.224-54-54 24.224-54 54-54 54 24.224 54 54zm-16 0c0-20.953-17.047-38-38-38s-38 17.047-38 38 17.047 38 38 38 38-17.047 38-38zm-116 0c0 4.418-3.582 8-8 8h-160.596c-3.878 25.995-26.346 46-53.404 46-29.776 0-54-24.224-54-54s24.224-54 54-54c27.058 0 49.526 20.005 53.404 46h160.596c4.418 0 8 3.582 8 8zm-184 0c0-20.953-17.047-38-38-38s-38 17.047-38 38 17.047 38 38 38 38-17.047 38-38z" fill="#08a120" data-original="#000000" style="" class=""/></g></svg>
