<?xml version="1.0"?>
<svg xmlns="http://www.w3.org/2000/svg" xmlns:xlink="http://www.w3.org/1999/xlink" xmlns:svgjs="http://svgjs.com/svgjs" version="1.1" width="70" height="70" x="0" y="0" viewBox="0 0 512 512" style="enable-background:new 0 0 512 512" xml:space="preserve" class=""><g><g xmlns="http://www.w3.org/2000/svg"><path d="m512 246.83c0-36.567-13.27-71.19-37.364-97.491-22.968-25.069-53.398-40.045-86.168-42.529-23.753-51.934-74.206-87.855-132.468-87.855-58.263 0-108.716 35.921-132.468 87.855-32.664 2.473-63 17.355-85.957 42.3-24.231 26.329-37.575 61.034-37.575 97.72 0 67.977 46.095 124.824 107.083 137.67l-12.375 24.168c-1.587 3.101-1.448 6.803.369 9.774s5.049 4.783 8.532 4.783h18.29v4.834c0 32.123 26.088 58.258 58.155 58.258 5.523 0 10-4.478 10-10s-4.477-10-10-10c-21.039 0-38.155-17.162-38.155-38.258v-4.834h20.991c3.483 0 6.715-1.813 8.532-4.783 1.817-2.972 1.957-6.674.369-9.774l-12.371-24.162c19.543-4.1 37.848-12.745 53.66-25.22.09 1.646.586 3.271 1.482 4.719 1.823 2.944 5.04 4.736 8.503 4.736h22.437v114.305c0 5.522 4.477 10 10 10 5.522 0 10-4.478 10-10v-114.306h23.436c3.463 0 6.68-1.792 8.503-4.736.894-1.445 1.39-3.066 1.481-4.709 15.808 12.474 34.109 21.116 53.658 25.214l-12.37 24.159c-1.587 3.101-1.447 6.803.37 9.774 1.816 2.971 5.049 4.783 8.531 4.783h20.991v4.834c0 21.096-17.116 38.258-38.155 38.258-5.522 0-10 4.478-10 10s4.478 10 10 10c32.067 0 58.155-26.135 58.155-58.258v-4.834h18.289c3.482 0 6.715-1.813 8.531-4.783 1.817-2.972 1.957-6.674.37-9.774l-12.374-24.168c60.987-12.846 107.082-69.693 107.082-137.67zm-256-207.875c70.003 0 126.954 60.51 126.954 134.887s-56.951 134.887-126.954 134.887-126.955-60.51-126.955-134.887 56.952-134.887 126.955-134.887zm-109.465 364.271h-26.571l8.247-16.107c1.672.066 3.352.099 5.038.099 1.684 0 3.364-.033 5.038-.099zm-13.285-36.008c-62.446 0-113.25-54.006-113.25-120.388 0-60.448 40.989-110.065 95.655-118.966-4.295 14.532-6.609 29.976-6.609 45.978 0 72.369 47.334 133.304 111.085 150.22-21.421 27.238-53.065 43.156-86.881 43.156zm105.968-18.478 10.05-20.172c2.232.107 4.476.161 6.732.161s4.5-.054 6.732-.161l10.05 20.173h-33.564zm152.818 54.486h-26.571l8.247-16.107c1.675.066 3.354.099 5.039.099 1.687 0 3.366-.034 5.038-.099zm-13.285-36.008c-33.843 0-65.465-15.912-86.882-43.156 63.75-16.916 111.085-77.852 111.085-150.22 0-16-2.314-31.442-6.608-45.973 54.631 8.924 95.654 58.625 95.654 118.961 0 66.382-50.804 120.388-113.249 120.388z" fill="#08a120" data-original="#000000" style="" class=""/><path d="m211.578 194.091-3.113 35.755c-.304 3.493 1.244 6.891 4.079 8.953 2.835 2.063 6.544 2.49 9.774 1.126l33.183-14.014 33.184 14.014c1.251.528 2.573.788 3.89.788 2.082 0 4.147-.65 5.885-1.914 2.835-2.063 4.383-5.46 4.078-8.953l-3.112-35.755 23.604-27.107c2.306-2.649 3.054-6.313 1.97-9.653-1.084-3.341-3.841-5.868-7.263-6.658l-35.101-8.104-18.574-30.766c-1.811-2.999-5.058-4.832-8.561-4.832s-6.75 1.833-8.561 4.832l-18.574 30.766-35.101 8.104c-3.422.79-6.179 3.317-7.262 6.658-1.084 3.34-.336 7.005 1.97 9.653zm25.411-32.987c2.636-.609 4.913-2.26 6.312-4.576l12.2-20.209 12.201 20.209c1.398 2.316 3.675 3.967 6.312 4.576l22.992 5.308-15.454 17.747c-1.782 2.047-2.655 4.73-2.42 7.435l2.041 23.448-21.781-9.198c-1.244-.525-2.567-.788-3.891-.788s-2.647.263-3.891.788l-21.781 9.198 2.042-23.448c.235-2.704-.639-5.388-2.421-7.435l-15.454-17.747z" fill="#08a120" data-original="#000000" style="" class=""/></g></g></svg>
