<?xml version="1.0"?>
<svg xmlns="http://www.w3.org/2000/svg" xmlns:xlink="http://www.w3.org/1999/xlink" xmlns:svgjs="http://svgjs.com/svgjs" version="1.1" width="70" height="70" x="0" y="0" viewBox="0 0 60 60" style="enable-background:new 0 0 512 512" xml:space="preserve" class=""><g><path xmlns="http://www.w3.org/2000/svg" d="m30 11a3 3 0 1 0 -3-3 3 3 0 0 0 3 3zm0-4a1 1 0 1 1 -1 1 1 1 0 0 1 1-1z" fill="#08a120" data-original="#000000" style="" class=""/><path xmlns="http://www.w3.org/2000/svg" d="m41.672 13.569a4.023 4.023 0 0 0 -3.735-2.569h-1.194l.417-1.2a7.541 7.541 0 0 0 -1.15-6.758 7.458 7.458 0 0 0 -12.02 0 7.561 7.561 0 0 0 -1.132 6.81l.423 1.148h-1.218a4.023 4.023 0 0 0 -3.735 2.569l-15.7 41a4 4 0 0 0 3.733 5.431h47.278a4 4 0 0 0 3.735-5.431zm-16.072-9.339a5.458 5.458 0 0 1 8.8 0 5.544 5.544 0 0 1 .858 4.948l-4.214 12.135a.954.954 0 0 1 -1.831 0c-.005-.017-.011-.035-.017-.051l-4.444-12.05a5.559 5.559 0 0 1 .848-4.982zm-19.239 53.77a2 2 0 0 1 -1.867-2.716l15.7-41a2.013 2.013 0 0 1 1.869-1.284h1.885l-11.174 45zm8.475 0 10.372-41.773 2.1 5.7a2.953 2.953 0 0 0 5.634.006l1.9-5.483 10.682 41.55zm40.45-.866a1.97 1.97 0 0 1 -1.647.866h-6.05l-11.553-44.966.012-.034h1.889a2.013 2.013 0 0 1 1.863 1.284l15.7 41a1.976 1.976 0 0 1 -.214 1.85z" fill="#08a120" data-original="#000000" style="" class=""/><path xmlns="http://www.w3.org/2000/svg" d="m30 50a1 1 0 0 0 -1 1v4a1 1 0 0 0 2 0v-4a1 1 0 0 0 -1-1z" fill="#08a120" data-original="#000000" style="" class=""/><path xmlns="http://www.w3.org/2000/svg" d="m30 42a1 1 0 0 0 -1 1v4a1 1 0 0 0 2 0v-4a1 1 0 0 0 -1-1z" fill="#08a120" data-original="#000000" style="" class=""/><path xmlns="http://www.w3.org/2000/svg" d="m30 34a1 1 0 0 0 -1 1v4a1 1 0 0 0 2 0v-4a1 1 0 0 0 -1-1z" fill="#08a120" data-original="#000000" style="" class=""/><path xmlns="http://www.w3.org/2000/svg" d="m30 26a1 1 0 0 0 -1 1v4a1 1 0 0 0 2 0v-4a1 1 0 0 0 -1-1z" fill="#08a120" data-original="#000000" style="" class=""/></g></svg>
