<?xml version="1.0"?>
<svg xmlns="http://www.w3.org/2000/svg" xmlns:xlink="http://www.w3.org/1999/xlink" xmlns:svgjs="http://svgjs.com/svgjs" version="1.1" width="70" height="70" x="0" y="0" viewBox="0 0 509.802 509.802" style="enable-background:new 0 0 512 512" xml:space="preserve" class=""><g><path xmlns="http://www.w3.org/2000/svg" d="m509.555 334.932-29.203-165.619c-1.348-7.646-7.992-13.222-15.757-13.222h-419.388c-7.765 0-14.409 5.575-15.757 13.222l-29.203 165.619c-1.728 9.8 5.824 18.778 15.757 18.778h477.794c9.952.001 17.482-8.996 15.757-18.778zm-474.483-13.221 11.818-67.023 11.818 67.023zm56.13 0-23.561-133.62h383.528l23.561 133.619h-383.528z" fill="#08a120" data-original="#000000" style="" class=""/><path xmlns="http://www.w3.org/2000/svg" d="m163.309 247.566c2.749-11.418-2.298-28.755-18.841-36.355-9.526-4.284-15.378-3.282-32.939-3.282-6.757 0-11.284 5.496-10.093 12.252l12.265 69.556c1.191 6.757 7.657 12.254 14.414 12.254h24.297c14.373 0 27.535-12.629 24.22-31.429-1.656-9.385-6.322-17.383-13.323-22.996zm-35.066-15.012h7.756c1.287 0 2.397 0 2.988 3.35.724 4.106-4.637 3.349-9.563 3.349zm7.902 44.813-2.399-13.607h11.091c.244 0 5.984.077 7.17 6.804 1.478 8.385-4.528 6.803-15.862 6.803z" fill="#08a120" data-original="#000000" style="" class=""/><path xmlns="http://www.w3.org/2000/svg" d="m226.342 207.93c-24.948 0-41.524 21.098-36.952 47.031 4.573 25.934 28.589 47.032 53.538 47.032 25.013 0 41.643-21.098 37.071-47.032-4.573-25.933-28.643-47.031-53.657-47.031zm12.244 69.437c-11.37 0-22.393-10.052-24.571-22.406s5.299-22.406 16.669-22.406c11.435 0 22.512 10.052 24.69 22.406s-5.353 22.406-16.788 22.406z" fill="#08a120" data-original="#000000" style="" class=""/><path xmlns="http://www.w3.org/2000/svg" d="m357.486 268.896c-1.91-9.612-9.285-17.198-17.719-22.282-12.754-7.687-21.589-6.785-22.47-11.781-.352-1.996 5.162-3.607 8.615-1.186 8.923 6.01 19.97.508 18.157-9.771s-15.97-16.057-26.282-16.065c-14.917 0-27.383 9.92-25.196 25.86 2.583 14.957 12.254 23.949 26.789 28.947l1.189.456c5.298 1.458 11.76 5.25 12.593 6.851 1.392 7.891-10.427 9.755-14.434 3.431-7.435-11.787-25.009-8.28-22.656 5.069 1.62 9.186 15.953 22.729 32.971 23.326 20.079.059 31.891-13.306 28.443-32.855z" fill="#08a120" data-original="#000000" style="" class=""/><path xmlns="http://www.w3.org/2000/svg" d="m437.234 268.663c-3.307-15.045-18.935-24.71-33.664-28.985-4.475-1.73-6.074-2.544-6.542-5.205-.104-1.394 4.89-3.385 8.902-.676 5.684 3.66 13.198 3.128 16.657-2.415 2.898-4.647 1.62-12.399-5.171-17.16-20.617-14.064-49.033-3.727-44.831 20.61 1.599 9.069 7.516 21.227 26.588 27.785l1.189.456c4.162 1.145 12.308 5.228 12.623 7.014 1.335 7.571-10.382 9.709-14.463 3.269-4.225-6.699-12.586-8.704-17.523-6.07-6.217 3.135-6.666 11.05-3.076 16.434 19.11 29.606 65.89 21.49 59.311-15.057z" fill="#08a120" data-original="#000000" style="" class=""/></g></svg>
